<?xml version="1.0" encoding="UTF-8" standalone="no"?><svg xmlns="http://www.w3.org/2000/svg" xmlns:xlink="http://www.w3.org/1999/xlink" contentScriptType="application/ecmascript" contentStyleType="text/css" height="391px" preserveAspectRatio="none" style="width:1296px;height:391px;" version="1.1" viewBox="0 0 1296 391" width="1296px" zoomAndPan="magnify"><defs><filter height="300%" id="f5hz2x6" width="300%" x="-1" y="-1"><feGaussianBlur result="blurOut" stdDeviation="2.0"/><feColorMatrix in="blurOut" result="blurOut2" type="matrix" values="0 0 0 0 0 0 0 0 0 0 0 0 0 0 0 0 0 0 .4 0"/><feOffset dx="4.0" dy="4.0" in="blurOut2" result="blurOut3"/><feBlend in="SourceGraphic" in2="blurOut3" mode="normal"/></filter></defs><g><!--cluster Learning languages--><rect fill="#FFFFFF" filter="url(#f5hz2x6)" height="243.5" style="stroke: #000000; stroke-width: 2.0;" width="702" x="587" y="140.5"/><text fill="#000000" font-family="sans-serif" font-size="14" font-weight="bold" lengthAdjust="spacingAndGlyphs" textLength="139" x="868.5" y="157.0332">Learning languages</text><!--cluster Preparing materials to learn--><rect fill="#FFFFFF" filter="url(#f5hz2x6)" height="127" style="stroke: #000000; stroke-width: 2.0;" width="541" x="22" y="141"/><text fill="#000000" font-family="sans-serif" font-size="14" font-weight="bold" lengthAdjust="spacingAndGlyphs" textLength="195" x="195" y="157.5332">Preparing materials to learn</text><ellipse cx="944.9692" cy="214.3154" fill="#FEFECE" filter="url(#f5hz2x6)" rx="91.9692" ry="37.8154" style="stroke: #A80036; stroke-width: 1.5;"/><text fill="#000000" font-family="sans-serif" font-size="14" lengthAdjust="spacingAndGlyphs" textLength="89" x="900.4692" y="198.2772">Learn needed</text><text fill="#000000" font-family="sans-serif" font-size="14" lengthAdjust="spacingAndGlyphs" textLength="57" x="916.4692" y="215.8866">materials</text><text fill="#000000" font-family="sans-serif" font-size="14" lengthAdjust="spacingAndGlyphs" textLength="135" x="877.4692" y="233.496">using spaced repition</text><ellipse cx="1210.0286" cy="214.3004" fill="#FEFECE" filter="url(#f5hz2x6)" rx="63.0286" ry="27.3004" style="stroke: #A80036; stroke-width: 1.5;"/><text fill="#000000" font-family="sans-serif" font-size="14" lengthAdjust="spacingAndGlyphs" textLength="78" x="1171.0286" y="209.9366">Learn words</text><text fill="#000000" font-family="sans-serif" font-size="14" lengthAdjust="spacingAndGlyphs" textLength="87" x="1166.5286" y="227.546">with examples</text><ellipse cx="672.9337" cy="214.3023" fill="#FEFECE" filter="url(#f5hz2x6)" rx="69.9337" ry="27.3023" style="stroke: #A80036; stroke-width: 1.5;"/><text fill="#000000" font-family="sans-serif" font-size="14" lengthAdjust="spacingAndGlyphs" textLength="97" x="624.4337" y="211.6632">Learn grammar</text><text fill="#000000" font-family="sans-serif" font-size="14" lengthAdjust="spacingAndGlyphs" textLength="87" x="629.4337" y="229.2726">with examples</text><ellipse cx="1007.7843" cy="349.8569" fill="#FEFECE" filter="url(#f5hz2x6)" rx="72.2843" ry="16.8569" style="stroke: #A80036; stroke-width: 1.5;"/><text fill="#000000" font-family="sans-serif" font-size="14" lengthAdjust="spacingAndGlyphs" textLength="107" x="954.2843" y="355.1615">Practice listening</text><ellipse cx="1194.1328" cy="350.1266" fill="#FEFECE" filter="url(#f5hz2x6)" rx="78.6328" ry="18.1266" style="stroke: #A80036; stroke-width: 1.5;"/><text fill="#000000" font-family="sans-serif" font-size="14" lengthAdjust="spacingAndGlyphs" textLength="123" x="1132.6328" y="355.4312">Train pronunciation</text><ellipse cx="420.0728" cy="214.3146" fill="#FEFECE" filter="url(#f5hz2x6)" rx="127.0728" ry="27.8146" style="stroke: #A80036; stroke-width: 1.5;"/><a target="_top" xlink:actuate="onRequest" xlink:href="./test.svg?sanitize=true" xlink:show="new" xlink:title="./test.svg?sanitize=true" xlink:type="simple"><text fill="#0000FF" font-family="sans-serif" font-size="14" lengthAdjust="spacingAndGlyphs" text-decoration="underline" textLength="66" x="304.0728" y="219.6193">Add words</text><line style="stroke: #0000FF; stroke-width: 1.0;" x1="304.0728" x2="370.0728" y1="221.6193" y2="221.6193"/></a><text fill="#000000" font-family="sans-serif" font-size="14" lengthAdjust="spacingAndGlyphs" textLength="162" x="374.0728" y="219.6193">to the student's dictionary</text><polygon fill="#FBFB77" filter="url(#f5hz2x6)" points="38.5,177,38.5,252.4063,223.5,252.4063,223.5,187,213.5,177,38.5,177" style="stroke: #A80036; stroke-width: 1.0;"/><polygon fill="#FBFB77" points="38.5,177,38.5,252.4063,223.5,252.4063,223.5,218.5,292.628,214.5,223.5,210.5,223.5,187,213.5,177,38.5,177" style="stroke: #A80036; stroke-width: 1.0;"/><line style="stroke: #A80036; stroke-width: 1.0;" x1="213.5" x2="213.5" y1="177" y2="187"/><line style="stroke: #A80036; stroke-width: 1.0;" x1="223.5" x2="213.5" y1="187" y2="187"/><text fill="#000000" font-family="sans-serif" font-size="13" lengthAdjust="spacingAndGlyphs" textLength="144" x="44.5" y="195.4951">A teacher can add words</text><text fill="#000000" font-family="sans-serif" font-size="13" lengthAdjust="spacingAndGlyphs" textLength="112" x="44.5" y="211.8467">for their students or</text><text fill="#000000" font-family="sans-serif" font-size="13" lengthAdjust="spacingAndGlyphs" textLength="164" x="44.5" y="228.1982">a strudent can add words for</text><text fill="#000000" font-family="sans-serif" font-size="13" lengthAdjust="spacingAndGlyphs" textLength="65" x="44.5" y="244.5498">themselves</text><!--entity Student--><ellipse cx="640" cy="18.5" fill="#FEFECE" filter="url(#f5hz2x6)" rx="8" ry="8" style="stroke: #A80036; stroke-width: 2.0;"/><path d="M640,26.5 L640,53.5 M627,34.5 L653,34.5 M640,53.5 L627,68.5 M640,53.5 L653,68.5 " fill="#FEFECE" filter="url(#f5hz2x6)" style="stroke: #A80036; stroke-width: 2.0;"/><text fill="#000000" font-family="sans-serif" font-size="14" lengthAdjust="spacingAndGlyphs" textLength="49" x="615.5" y="90.0332">Student</text><!--entity Teacher--><ellipse cx="420" cy="18.5" fill="#FEFECE" filter="url(#f5hz2x6)" rx="8" ry="8" style="stroke: #A80036; stroke-width: 2.0;"/><path d="M420,26.5 L420,53.5 M407,34.5 L433,34.5 M420,53.5 L407,68.5 M420,53.5 L433,68.5 " fill="#FEFECE" filter="url(#f5hz2x6)" style="stroke: #A80036; stroke-width: 2.0;"/><text fill="#000000" font-family="sans-serif" font-size="14" lengthAdjust="spacingAndGlyphs" textLength="53" x="393.5" y="90.0332">Teacher</text><!--entity User--><ellipse cx="531" cy="18.5" fill="#FEFECE" filter="url(#f5hz2x6)" rx="8" ry="8" style="stroke: #A80036; stroke-width: 2.0;"/><path d="M531,26.5 L531,53.5 M518,34.5 L544,34.5 M531,53.5 L518,68.5 M531,53.5 L544,68.5 " fill="#FEFECE" filter="url(#f5hz2x6)" style="stroke: #A80036; stroke-width: 2.0;"/><text fill="#000000" font-family="sans-serif" font-size="14" lengthAdjust="spacingAndGlyphs" textLength="29" x="516.5" y="90.0332">User</text><path d="M566.589,51 C582.887,51 599.186,51 615.484,51 " fill="none" style="stroke: #A80036; stroke-width: 1.0;"/><polygon fill="none" points="566.328,58,546.328,51,566.328,44,566.328,58" style="stroke: #A80036; stroke-width: 1.0;"/><path d="M446.883,51 C463.145,51 479.407,51 495.67,51 " fill="none" style="stroke: #A80036; stroke-width: 1.0;"/><polygon fill="none" points="495.885,44,515.885,51,495.885,58,495.885,44" style="stroke: #A80036; stroke-width: 1.0;"/><path d="M1037.31,214.5 C1071.62,214.5 1109.91,214.5 1141.69,214.5 " fill="none" style="stroke: #A80036; stroke-width: 1.0; stroke-dasharray: 7.0,7.0;"/><polygon fill="#A80036" points="1146.74,214.5,1137.74,210.5,1141.74,214.5,1137.74,218.5,1146.74,214.5" style="stroke: #A80036; stroke-width: 1.0;"/><text fill="#000000" font-family="sans-serif" font-size="13" lengthAdjust="spacingAndGlyphs" textLength="73" x="1055.5" y="207.9951">&lt;&lt;include&gt;&gt;</text><path d="M748.195,214.5 C780.594,214.5 818.79,214.5 852.87,214.5 " fill="none" style="stroke: #A80036; stroke-width: 1.0; stroke-dasharray: 7.0,7.0;"/><polygon fill="#A80036" points="743.047,214.5,752.047,218.5,748.047,214.5,752.047,210.5,743.047,214.5" style="stroke: #A80036; stroke-width: 1.0;"/><text fill="#000000" font-family="sans-serif" font-size="13" lengthAdjust="spacingAndGlyphs" textLength="73" x="761.5" y="207.9951">&lt;&lt;include&gt;&gt;</text><path d="M1176.19,237.845 C1136.58,264.022 1071.74,306.8743 1035.22,331.0106 " fill="none" style="stroke: #A80036; stroke-width: 1.0; stroke-dasharray: 7.0,7.0;"/><polygon fill="#A80036" points="1030.91,333.8589,1040.6237,332.2331,1035.0812,331.1018,1036.2124,325.5593,1030.91,333.8589" style="stroke: #A80036; stroke-width: 1.0;"/><text fill="#000000" font-family="sans-serif" font-size="13" lengthAdjust="spacingAndGlyphs" textLength="73" x="1103" y="298.4951">&lt;&lt;include&gt;&gt;</text><path d="M1206.8,242.195 C1203.83,266.954 1199.47,303.3813 1196.68,326.6455 " fill="none" style="stroke: #A80036; stroke-width: 1.0; stroke-dasharray: 7.0,7.0;"/><polygon fill="#A80036" points="1196.07,331.6873,1201.1114,323.2266,1196.6643,326.7227,1193.1681,322.2756,1196.07,331.6873" style="stroke: #A80036; stroke-width: 1.0;"/><text fill="#000000" font-family="sans-serif" font-size="13" lengthAdjust="spacingAndGlyphs" textLength="73" x="1202" y="298.4951">&lt;&lt;include&gt;&gt;</text><path d="M664.701,65.079 C712.204,90.233 817.521,145.999 884.675,181.557 " fill="none" style="stroke: #A80036; stroke-width: 1.0;"/><polygon fill="#A80036" points="889.443,184.082,883.3615,176.335,885.0244,181.742,879.6174,183.4048,889.443,184.082" style="stroke: #A80036; stroke-width: 1.0;"/><path d="M615.191,70.212 C577.416,97.943 505.104,151.026 459.889,184.218 " fill="none" style="stroke: #A80036; stroke-width: 1.0;"/><polygon fill="#A80036" points="455.6,187.366,465.222,185.2643,459.6305,184.4071,460.4877,178.8156,455.6,187.366" style="stroke: #A80036; stroke-width: 1.0;"/><path d="M420,93.59 C420,120.813 420,155.871 420,181.038 " fill="none" style="stroke: #A80036; stroke-width: 1.0;"/><polygon fill="#A80036" points="420,186.252,424,177.252,420,181.252,416,177.252,420,186.252" style="stroke: #A80036; stroke-width: 1.0;"/></g></svg>